<svg id="Group_162" data-name="Group 162" xmlns="http://www.w3.org/2000/svg" width="65.586" height="65.586" viewBox="0 0 65.586 65.586">
  <path id="Path_116" data-name="Path 116" d="M32.793,0h0A32.793,32.793,0,0,1,65.586,32.793h0A32.793,32.793,0,0,1,32.793,65.586h0A32.793,32.793,0,0,1,0,32.793H0A32.793,32.793,0,0,1,32.793,0Z" transform="translate(0 0)" fill="#3581e5"/>
  <path id="Path_115" data-name="Path 115" d="M388.829,175.677h7.982V155.686h5.569l.594-6.693h-6.164v-3.812c0-1.578.317-2.2,1.844-2.2h4.32v-6.946h-5.528c-5.94,0-8.618,2.616-8.618,7.623v5.337h-4.153v6.777h4.153Z" transform="translate(-361.032 -123.061)" fill="#fff"/>
</svg>
